<svg xmlns="http://www.w3.org/2000/svg" xmlns:xlink="http://www.w3.org/1999/xlink" width="500" zoomAndPan="magnify" viewBox="0 0 375 374.999991" height="500" preserveAspectRatio="xMidYMid meet" version="1.0"><defs><g/><clipPath id="fd437ba55d"><path d="M 24.355469 46.207031 L 350.644531 46.207031 L 350.644531 375 L 24.355469 375 Z M 24.355469 46.207031 " clip-rule="nonzero"/></clipPath><clipPath id="458e1e1746"><path d="M 187.5 46.207031 L 350.644531 396.949219 L 24.355469 396.949219 Z M 187.5 46.207031 " clip-rule="nonzero"/></clipPath><clipPath id="c521aab7a8"><path d="M 129.242188 172.160156 L 245.492188 172.160156 L 245.492188 288.410156 L 129.242188 288.410156 Z M 129.242188 172.160156 " clip-rule="nonzero"/></clipPath></defs><rect x="-37.5" width="450" fill="#ffffff" y="-37.499999" height="449.999989" fill-opacity="1"/><rect x="-37.5" width="450" fill="#ffffff" y="-37.499999" height="449.999989" fill-opacity="1"/><g clip-path="url(#fd437ba55d)"><g clip-path="url(#458e1e1746)"><path fill="#000000" d="M 24.355469 46.207031 L 350.644531 46.207031 L 350.644531 396.949219 L 24.355469 396.949219 Z M 24.355469 46.207031 " fill-opacity="1" fill-rule="nonzero"/></g></g><path fill="#ffffff" d="M 215.226562 205.867188 L 233.800781 210.035156 C 233.894531 210.035156 234.074219 210.035156 234.164062 210.035156 C 234.980469 210.035156 235.707031 209.492188 235.886719 208.585938 C 236.066406 207.589844 235.523438 206.683594 234.527344 206.410156 L 215.953125 202.242188 C 214.957031 202.0625 214.050781 202.605469 213.777344 203.601562 C 213.6875 204.6875 214.230469 205.6875 215.226562 205.867188 Z M 215.226562 205.867188 " fill-opacity="1" fill-rule="nonzero"/><path fill="#ffffff" d="M 211.875 212.390625 C 211.695312 213.386719 212.238281 214.292969 213.234375 214.566406 L 231.808594 218.734375 C 231.898438 218.734375 232.082031 218.734375 232.171875 218.734375 C 232.988281 218.734375 233.710938 218.191406 233.894531 217.285156 C 234.074219 216.285156 233.53125 215.378906 232.535156 215.109375 L 213.960938 210.941406 C 213.054688 210.851562 212.058594 211.484375 211.875 212.390625 Z M 211.875 212.390625 " fill-opacity="1" fill-rule="nonzero"/><path fill="#ffffff" d="M 209.792969 221.089844 C 209.609375 222.085938 210.152344 222.992188 211.152344 223.261719 L 229.726562 227.429688 C 229.816406 227.429688 229.996094 227.429688 230.085938 227.429688 C 230.902344 227.429688 231.628906 226.886719 231.808594 225.980469 C 231.992188 224.984375 231.445312 224.078125 230.449219 223.808594 L 211.875 219.640625 C 210.96875 219.546875 210.0625 220.183594 209.792969 221.089844 Z M 209.792969 221.089844 " fill-opacity="1" fill-rule="nonzero"/><path fill="#ffffff" d="M 207.796875 229.878906 C 207.617188 230.875 208.160156 231.78125 209.15625 232.050781 L 227.730469 236.21875 C 227.824219 236.21875 228.003906 236.21875 228.09375 236.21875 C 228.910156 236.21875 229.632812 235.675781 229.816406 234.769531 C 229.996094 233.773438 229.453125 232.867188 228.457031 232.597656 L 209.972656 228.519531 C 208.976562 228.246094 207.980469 228.882812 207.796875 229.878906 Z M 207.796875 229.878906 " fill-opacity="1" fill-rule="nonzero"/><path fill="#ffffff" d="M 208.703125 253.890625 L 221.117188 256.699219 C 221.207031 256.699219 221.390625 256.699219 221.480469 256.699219 C 222.296875 256.699219 223.019531 256.152344 223.203125 255.25 C 223.382812 254.25 222.839844 253.34375 221.84375 253.074219 L 203.359375 248.90625 L 206.53125 251.171875 C 207.617188 251.894531 208.25 252.800781 208.703125 253.890625 Z M 208.703125 253.890625 " fill-opacity="1" fill-rule="nonzero"/><path fill="#ffffff" d="M 219.847656 261.863281 L 208.976562 259.417969 L 208.976562 263.132812 L 219.125 265.394531 C 219.214844 265.394531 219.394531 265.394531 219.488281 265.394531 C 220.300781 265.394531 221.027344 264.851562 221.207031 263.945312 C 221.480469 263.039062 220.84375 262.132812 219.847656 261.863281 Z M 219.847656 261.863281 " fill-opacity="1" fill-rule="nonzero"/><path fill="#ffffff" d="M 199.914062 242.746094 L 223.109375 248 C 223.203125 248 223.382812 248 223.472656 248 C 224.289062 248 225.011719 247.457031 225.195312 246.550781 C 225.375 245.554688 224.832031 244.648438 223.835938 244.375 L 199.824219 238.9375 L 199.824219 242.746094 Z M 199.914062 242.746094 " fill-opacity="1" fill-rule="nonzero"/><path fill="#ffffff" d="M 196.472656 192.457031 C 194.839844 192.09375 193.300781 192.277344 191.851562 192.730469 C 192.394531 193.726562 192.667969 194.902344 192.667969 196.082031 L 192.667969 196.261719 C 193.300781 195.992188 193.933594 195.808594 194.660156 195.808594 C 195.023438 195.808594 195.386719 195.808594 195.65625 195.898438 C 196.835938 196.171875 197.832031 196.898438 198.464844 197.894531 C 199.101562 198.890625 199.28125 200.066406 199.007812 201.246094 C 198.554688 203.238281 196.742188 204.597656 194.660156 204.6875 L 196.199219 205.234375 C 197.195312 205.59375 198.101562 206.320312 198.738281 207.136719 C 200.550781 206.046875 202 204.234375 202.453125 202.0625 C 202.90625 199.976562 202.542969 197.804688 201.457031 195.992188 C 200.457031 194.179688 198.648438 192.910156 196.472656 192.457031 Z M 196.472656 192.457031 " fill-opacity="1" fill-rule="nonzero"/><path fill="#ffffff" d="M 199.914062 213.386719 L 199.914062 217.285156 C 200.550781 217.644531 201.183594 218.191406 201.546875 218.824219 C 202.179688 219.820312 202.363281 221 202.089844 222.175781 L 199.914062 231.691406 L 199.914062 235.40625 L 200.910156 235.585938 C 201.003906 235.585938 201.183594 235.585938 201.273438 235.585938 C 202.089844 235.585938 202.816406 235.042969 202.996094 234.226562 L 205.625 222.902344 C 206.078125 220.816406 205.714844 218.640625 204.625 216.832031 C 203.539062 215.199219 201.910156 213.929688 199.914062 213.386719 Z M 199.914062 213.386719 " fill-opacity="1" fill-rule="nonzero"/><g clip-path="url(#c521aab7a8)"><path fill="#ffffff" d="M 131.597656 268.839844 L 184.148438 288.046875 C 184.601562 288.230469 184.964844 288.230469 185.417969 288.230469 C 186.144531 288.230469 186.867188 287.957031 187.503906 287.59375 C 188.40625 286.960938 189.042969 285.875 189.042969 284.785156 L 189.042969 196.082031 C 189.042969 194.539062 188.136719 193.183594 186.6875 192.636719 L 140.929688 175.964844 L 199.554688 175.964844 L 199.554688 183.035156 L 208.976562 183.035156 L 208.976562 187.835938 L 180.796875 181.492188 C 180.433594 181.402344 180.070312 181.402344 179.617188 181.402344 C 178.53125 181.402344 177.535156 181.675781 176.71875 182.21875 C 175.902344 182.761719 175.179688 183.488281 174.726562 184.484375 L 178.167969 185.75 C 178.53125 185.300781 179.074219 185.027344 179.617188 185.027344 C 179.800781 185.027344 179.890625 185.027344 180.070312 185.027344 L 240.234375 198.617188 C 241.234375 198.800781 241.867188 199.796875 241.59375 200.792969 L 223.746094 277.445312 L 208.976562 274.09375 C 208.976562 275.363281 208.433594 276.632812 207.617188 277.539062 L 222.929688 280.980469 C 223.203125 281.070312 223.472656 281.070312 223.746094 281.070312 C 225.375 281.070312 226.917969 279.894531 227.277344 278.261719 L 245.128906 201.609375 C 245.492188 200.160156 245.21875 198.707031 244.402344 197.53125 C 243.679688 196.261719 242.410156 195.445312 240.960938 195.085938 L 212.601562 188.742188 L 212.601562 183.125 C 212.601562 181.132812 210.96875 179.5 208.976562 179.5 L 203.175781 179.5 L 203.175781 175.964844 C 203.175781 173.972656 201.546875 172.34375 199.554688 172.34375 L 132.867188 172.34375 C 130.871094 172.34375 129.242188 173.972656 129.242188 175.964844 L 129.242188 176.328125 C 129.242188 176.511719 129.242188 176.691406 129.242188 176.871094 L 129.242188 265.488281 C 129.242188 267.027344 130.238281 268.386719 131.597656 268.839844 Z M 131.597656 268.839844 " fill-opacity="1" fill-rule="nonzero"/></g><path fill="#ffffff" d="M 194.480469 282.882812 C 194.839844 282.882812 195.203125 282.792969 195.476562 282.613281 C 196.019531 282.25 196.289062 281.707031 196.289062 281.070312 L 196.289062 275.816406 L 203.539062 275.816406 C 204.535156 275.816406 205.351562 275 205.351562 274.003906 L 205.351562 255.703125 C 205.351562 255.066406 205.078125 254.523438 204.535156 254.25 L 196.289062 248.453125 L 196.289062 210.398438 C 196.289062 209.671875 195.839844 208.949219 195.113281 208.675781 L 192.667969 207.769531 L 192.667969 282.25 L 193.753906 282.703125 C 194.027344 282.882812 194.207031 282.882812 194.480469 282.882812 Z M 194.480469 282.882812 " fill-opacity="1" fill-rule="nonzero"/><g fill="#ffffff" fill-opacity="1"><g transform="translate(78.999998, 339.482116)"><g><path d="M 21.109375 -3.96875 L 1.71875 -12.515625 L 1.71875 -15.3125 L 21.109375 -25 L 21.109375 -20.3125 L 7.75 -14.125 L 21.109375 -8.640625 Z M 21.109375 -3.96875 "/></g></g></g><g fill="#ffffff" fill-opacity="1"><g transform="translate(101.829803, 339.482116)"><g><path d="M 14.4375 -16.03125 L 25.765625 -16.03125 L 25.765625 -1.234375 C 23.929688 -0.628906 22.203125 -0.207031 20.578125 0.03125 C 18.953125 0.269531 17.296875 0.390625 15.609375 0.390625 C 11.296875 0.390625 8.003906 -0.875 5.734375 -3.40625 C 3.460938 -5.9375 2.328125 -9.570312 2.328125 -14.3125 C 2.328125 -18.925781 3.644531 -22.519531 6.28125 -25.09375 C 8.914062 -27.675781 12.570312 -28.96875 17.25 -28.96875 C 20.175781 -28.96875 23 -28.378906 25.71875 -27.203125 L 23.71875 -22.359375 C 21.632812 -23.398438 19.460938 -23.921875 17.203125 -23.921875 C 14.585938 -23.921875 12.492188 -23.039062 10.921875 -21.28125 C 9.347656 -19.53125 8.5625 -17.171875 8.5625 -14.203125 C 8.5625 -11.097656 9.191406 -8.726562 10.453125 -7.09375 C 11.722656 -5.46875 13.570312 -4.65625 16 -4.65625 C 17.257812 -4.65625 18.539062 -4.785156 19.84375 -5.046875 L 19.84375 -11 L 14.4375 -11 Z M 14.4375 -16.03125 "/></g></g></g><g fill="#ffffff" fill-opacity="1"><g transform="translate(130.791823, 339.482116)"><g><path d="M 17 0 L 15.84375 -2.96875 L 15.6875 -2.96875 C 14.6875 -1.707031 13.65625 -0.832031 12.59375 -0.34375 C 11.53125 0.144531 10.144531 0.390625 8.4375 0.390625 C 6.34375 0.390625 4.691406 -0.207031 3.484375 -1.40625 C 2.285156 -2.601562 1.6875 -4.3125 1.6875 -6.53125 C 1.6875 -8.84375 2.492188 -10.546875 4.109375 -11.640625 C 5.734375 -12.742188 8.179688 -13.359375 11.453125 -13.484375 L 15.234375 -13.59375 L 15.234375 -14.546875 C 15.234375 -16.765625 14.101562 -17.875 11.84375 -17.875 C 10.09375 -17.875 8.039062 -17.347656 5.6875 -16.296875 L 3.71875 -20.3125 C 6.226562 -21.625 9.015625 -22.28125 12.078125 -22.28125 C 15.003906 -22.28125 17.25 -21.640625 18.8125 -20.359375 C 20.375 -19.085938 21.15625 -17.148438 21.15625 -14.546875 L 21.15625 0 Z M 15.234375 -10.125 L 12.9375 -10.046875 C 11.195312 -9.992188 9.90625 -9.679688 9.0625 -9.109375 C 8.21875 -8.535156 7.796875 -7.660156 7.796875 -6.484375 C 7.796875 -4.804688 8.757812 -3.96875 10.6875 -3.96875 C 12.0625 -3.96875 13.160156 -4.363281 13.984375 -5.15625 C 14.816406 -5.945312 15.234375 -7.003906 15.234375 -8.328125 Z M 15.234375 -10.125 "/></g></g></g><g fill="#ffffff" fill-opacity="1"><g transform="translate(154.949623, 339.482116)"><g><path d="M 15.28125 -22.25 C 17.851562 -22.25 19.867188 -21.242188 21.328125 -19.234375 C 22.785156 -17.222656 23.515625 -14.460938 23.515625 -10.953125 C 23.515625 -7.347656 22.757812 -4.554688 21.25 -2.578125 C 19.75 -0.597656 17.707031 0.390625 15.125 0.390625 C 12.550781 0.390625 10.535156 -0.539062 9.078125 -2.40625 L 8.671875 -2.40625 L 7.671875 0 L 3.125 0 L 3.125 -30.390625 L 9.078125 -30.390625 L 9.078125 -23.328125 C 9.078125 -22.421875 9 -20.976562 8.84375 -19 L 9.078125 -19 C 10.472656 -21.164062 12.539062 -22.25 15.28125 -22.25 Z M 13.359375 -17.484375 C 11.890625 -17.484375 10.816406 -17.03125 10.140625 -16.125 C 9.460938 -15.21875 9.109375 -13.722656 9.078125 -11.640625 L 9.078125 -11 C 9.078125 -8.65625 9.425781 -6.972656 10.125 -5.953125 C 10.820312 -4.941406 11.925781 -4.4375 13.4375 -4.4375 C 14.664062 -4.4375 15.640625 -5 16.359375 -6.125 C 17.078125 -7.25 17.4375 -8.882812 17.4375 -11.03125 C 17.4375 -13.1875 17.070312 -14.800781 16.34375 -15.875 C 15.613281 -16.945312 14.617188 -17.484375 13.359375 -17.484375 Z M 13.359375 -17.484375 "/></g></g></g><g fill="#ffffff" fill-opacity="1"><g transform="translate(180.25965, 339.482116)"><g><path d="M 15.3125 -22.25 C 16.125 -22.25 16.796875 -22.191406 17.328125 -22.078125 L 16.875 -16.484375 C 16.394531 -16.617188 15.8125 -16.6875 15.125 -16.6875 C 13.21875 -16.6875 11.734375 -16.195312 10.671875 -15.21875 C 9.609375 -14.238281 9.078125 -12.867188 9.078125 -11.109375 L 9.078125 0 L 3.125 0 L 3.125 -21.84375 L 7.640625 -21.84375 L 8.515625 -18.171875 L 8.8125 -18.171875 C 9.488281 -19.390625 10.398438 -20.375 11.546875 -21.125 C 12.703125 -21.875 13.957031 -22.25 15.3125 -22.25 Z M 15.3125 -22.25 "/></g></g></g><g fill="#ffffff" fill-opacity="1"><g transform="translate(198.421937, 339.482116)"><g><path d="M 2.875 -27.484375 C 2.875 -29.421875 3.953125 -30.390625 6.109375 -30.390625 C 8.273438 -30.390625 9.359375 -29.421875 9.359375 -27.484375 C 9.359375 -26.554688 9.085938 -25.832031 8.546875 -25.3125 C 8.003906 -24.800781 7.191406 -24.546875 6.109375 -24.546875 C 3.953125 -24.546875 2.875 -25.523438 2.875 -27.484375 Z M 9.078125 0 L 3.125 0 L 3.125 -21.84375 L 9.078125 -21.84375 Z M 9.078125 0 "/></g></g></g><g fill="#ffffff" fill-opacity="1"><g transform="translate(210.627781, 339.482116)"><g><path d="M 12.171875 -18.015625 C 10.910156 -18.015625 9.921875 -17.613281 9.203125 -16.8125 C 8.484375 -16.007812 8.070312 -14.875 7.96875 -13.40625 L 16.328125 -13.40625 C 16.304688 -14.875 15.921875 -16.007812 15.171875 -16.8125 C 14.429688 -17.613281 13.429688 -18.015625 12.171875 -18.015625 Z M 13.015625 0.390625 C 9.492188 0.390625 6.742188 -0.578125 4.765625 -2.515625 C 2.785156 -4.460938 1.796875 -7.210938 1.796875 -10.765625 C 1.796875 -14.421875 2.707031 -17.25 4.53125 -19.25 C 6.363281 -21.25 8.894531 -22.25 12.125 -22.25 C 15.21875 -22.25 17.625 -21.367188 19.34375 -19.609375 C 21.0625 -17.847656 21.921875 -15.421875 21.921875 -12.328125 L 21.921875 -9.4375 L 7.828125 -9.4375 C 7.898438 -7.738281 8.40625 -6.414062 9.34375 -5.46875 C 10.28125 -4.519531 11.59375 -4.046875 13.28125 -4.046875 C 14.59375 -4.046875 15.832031 -4.179688 17 -4.453125 C 18.175781 -4.722656 19.40625 -5.160156 20.6875 -5.765625 L 20.6875 -1.15625 C 19.644531 -0.632812 18.53125 -0.25 17.34375 0 C 16.15625 0.257812 14.710938 0.390625 13.015625 0.390625 Z M 13.015625 0.390625 "/></g></g></g><g fill="#ffffff" fill-opacity="1"><g transform="translate(234.258284, 339.482116)"><g><path d="M 9.078125 0 L 3.125 0 L 3.125 -30.390625 L 9.078125 -30.390625 Z M 9.078125 0 "/></g></g></g><g fill="#ffffff" fill-opacity="1"><g transform="translate(246.464128, 339.482116)"><g/></g></g><g fill="#ffffff" fill-opacity="1"><g transform="translate(256.853738, 339.482116)"><g><path d="M 16.328125 -28.5625 L 5.6875 0 L 0.28125 0 L 10.921875 -28.5625 Z M 16.328125 -28.5625 "/></g></g></g><g fill="#ffffff" fill-opacity="1"><g transform="translate(273.375549, 339.482116)"><g><path d="M 1.71875 -8.640625 L 15.078125 -14.125 L 1.71875 -20.3125 L 1.71875 -25 L 21.109375 -15.3125 L 21.109375 -12.515625 L 1.71875 -3.96875 Z M 1.71875 -8.640625 "/></g></g></g></svg>